<svg width="33" height="40" viewBox="0 0 33 40" fill="none" xmlns="http://www.w3.org/2000/svg">
<path fill-rule="evenodd" clip-rule="evenodd" d="M0 28.926V1.1219C0 0.405952 0.449704 0 1.16481 0H3.58287C4.29797 0 4.74768 0.405952 4.74768 1.1219V28.926C4.74768 29.6419 4.29797 30.0479 3.58287 30.0479H1.16481C0.449704 30.0479 0 29.6419 0 28.926ZM9.20049 28.9259V13.7654C9.20049 13.0494 9.65019 12.6435 10.3653 12.6435H12.7834C13.4985 12.6435 13.9482 13.0494 13.9482 13.7654V28.9259C13.9482 29.6418 13.4985 30.0478 12.7834 30.0478H10.3653C9.65019 30.0478 9.20049 29.6418 9.20049 28.9259ZM18.4009 11.9055V28.926C18.4009 29.642 18.8506 30.0479 19.5657 30.0479H21.9838C22.6989 30.0479 23.1486 29.642 23.1486 28.926V11.9055C23.1486 11.1896 22.6989 10.7836 21.9838 10.7836H19.5657C18.8506 10.7836 18.4009 11.1896 18.4009 11.9055ZM27.6014 28.926V1.1219C27.6014 0.405952 28.0511 0 28.7662 0H31.1843C31.8994 0 32.3491 0.405952 32.3491 1.1219V28.926C32.3491 29.6419 31.8994 30.0479 31.1843 30.0479H28.7662C28.0511 30.0479 27.6014 29.6419 27.6014 28.926ZM31.2285 34.506H1.12057C0.405467 34.506 0 34.9563 0 35.6722V38.0932C0 38.8091 0.405467 39.2594 1.12057 39.2594H31.2285C31.9436 39.2594 32.3491 38.8091 32.3491 38.0932V35.6722C32.3491 34.9563 31.9436 34.506 31.2285 34.506Z" fill="url(#paint0_linear_1374_2246)"/>
<defs>
<linearGradient id="paint0_linear_1374_2246" x1="-2.4102e-07" y1="19.6297" x2="32.3491" y2="19.6297" gradientUnits="userSpaceOnUse">
<stop stop-color="#FF5F2E"/>
<stop offset="0.536458" stop-color="#FF9FFF"/>
<stop offset="1" stop-color="#73C7FF"/>
<stop offset="1" stop-color="#73C7FF"/>
</linearGradient>
</defs>
</svg>